PathFileType	4	(X/Y/Z)	Patient4_TMGait_0pt3_02_right_19.trc.trc
DataRate	CameraRate	NumFrames	NumMarkers	Units	OrigDataRate	OrigDataStartFrame	OrigNumFrames
47.619047619048	47.619047619048	4	33	mm	47.619047619048	89	       141
Frame#	Time	Sacral			L.Shoulder			Chest			R.Shoulder			Neck			R.ASIS			L.ASIS			R.Thigh.Superior			R.Thigh.Lateral			R.Thigh.Inferior			R.Patella			L.Thigh.Superior			L.Thigh.Lateral			L.Thigh.Inferior			L.Patella			L.Shank.Superior			L.Shank.Lateral			L.Shank.Inferior			R.Shank.Superior			R.Shank.Lateral			R.Shank.Inferior			R.Heel			R.Midfoot.Superior			R.Midfoot.Lateral			R.Toe			L.Heel			L.Midfoot.Lateral			L.Midfoot.Superior			L.Toe			L.Elbow			L.Wrist			R.Elbow			R.Wrist			
		X1	Y1	Z1	X2	Y2	Z2	X3	Y3	Z3	X4	Y4	Z4	X5	Y5	Z5	X6	Y6	Z6	X7	Y7	Z7	X8	Y8	Z8	X9	Y9	Z9	X10	Y10	Z10	X11	Y11	Z11	X12	Y12	Z12	X13	Y13	Z13	X14	Y14	Z14	X15	Y15	Z15	X16	Y16	Z16	X17	Y17	Z17	X18	Y18	Z18	X19	Y19	Z19	X20	Y20	Z20	X21	Y21	Z21	X22	Y22	Z22	X23	Y23	Z23	X24	Y24	Z24	X25	Y25	Z25	X26	Y26	Z26	X27	Y27	Z27	X28	Y28	Z28	X29	Y29	Z29	X30	Y30	Z30	X31	Y31	Z31	X32	Y32	Z32	X33	Y33	Z33	

89	37.848000000000	713.760858026946	1005.687075743708	500.130448037628	870.204995205048	1422.507667732198	288.613952075064	999.011719635034	1353.552830257618	430.682639388958	949.490309639828	1436.846232927615	611.751317850053	882.161481379919	1488.437188524640	443.947999669055	951.451514300832	930.949403639876	593.072102539304	911.352981240846	954.487738346147	321.971428144787	944.063492720383	718.670966469858	572.698598317446	842.170956959749	626.147379695022	641.287433427973	901.866533861290	556.854015198168	563.062713090675	880.025715209079	463.964179287247	575.618788037874	985.692279411147	761.138394902902	360.779769323721	920.656020670603	632.485242235516	296.737413205842	1018.034434860795	569.787508384798	360.617494844119	1030.448172934742	496.517660035630	365.892611751482	1003.368518414808	421.837203072090	357.747180336829	917.472267706702	306.929185051836	302.266474112062	968.304322352018	194.469134658183	370.485150125766	820.962796388369	389.174282368415	585.661883315398	719.442964214848	317.580530784226	652.921195221616	726.883976579038	211.275430863280	595.143956199002	547.329871977956	80.134070615079	573.386401159792	725.974872344028	102.246282622914	607.836415509585	628.752384327362	55.992923449258	645.863597694666	833.448098447443	36.581860271996	634.104733828334	839.532240639268	38.920500092131	403.175820665447	917.260942514943	36.666924953252	326.236836209241	999.741196578365	96.993036467161	357.468018755767	1128.731738126293	43.988714913705	333.840422581661	753.576417960242	1091.394821687652	186.882314312403	748.514184766425	829.555599936181	194.573025246781	1136.880908498989	1157.152068655538	720.462141427726	1393.878903653733	1139.979667024779	684.555699451992	
90	37.869000000000	714.112403754248	1006.363896384056	493.396145260377	872.768120589047	1423.240738872961	283.214857664606	999.770240810409	1354.324648424789	426.874989218864	948.185159165455	1437.699656379567	607.367497990547	882.782453123818	1489.288493772600	438.634610284828	950.736252666370	931.940030695735	588.720420836097	913.204076816116	954.818879477210	317.194153491166	944.416996250942	719.595154067816	569.449608024226	842.659447974616	627.138067290871	638.089252653506	903.516979856878	557.367089350929	560.887977347869	881.905827881497	463.606164882098	574.627329479614	985.862612020380	760.427563963298	356.251239706325	919.537919655010	632.070180212370	293.139231012031	1016.157963818553	568.792452166326	357.404997237149	1027.794770124045	495.552473251778	363.300189691530	1000.149776560478	420.895372452432	355.601647561938	913.421869968322	306.334527056373	300.624483396372	963.139559221241	193.997282500382	369.755250282729	821.268604025586	389.822215395286	584.640272670966	718.157006076672	320.426129265720	651.655069488081	724.616510682880	213.324557539521	595.023352888995	542.875729902272	85.406565295901	573.705285096459	721.945929154639	102.830885075973	608.135019291208	623.621894312225	58.962947127970	646.068704602902	827.318986378704	36.327272335223	634.110276427322	833.200572492618	38.885847939448	403.156389213616	910.923167936970	36.589756136539	326.185948277116	993.471868753617	96.842785779643	357.394372682833	1122.485210275864	43.606904888626	333.827264827961	760.931461508196	1090.993395524717	178.372103607640	759.807119414644	829.129358964356	184.136383913240	1126.887259490786	1150.661646786963	717.720785782879	1383.017111105716	1117.793332078165	686.774157353765	
91	37.890000000000	714.433238084092	1006.993017284614	486.765263046178	875.187488790491	1424.011146289148	277.909391785473	1000.316572516466	1355.160737288642	423.178087283462	946.629148656399	1438.581302305984	603.068237541174	883.215798824611	1490.168162401708	433.392744594641	949.968287896753	933.009229677156	584.437577792819	914.994925347280	955.190699062936	312.506196292681	945.379097212514	720.657655449926	566.219416139285	844.134668633335	627.967736960348	634.915796406551	906.362887202150	557.909254075840	558.666650880002	885.123331999408	463.099268999281	573.698461900998	985.875656583351	759.641549150544	351.698929925499	918.135820908970	631.682805020632	289.544125098952	1013.935070933902	567.753946801494	354.169070309396	1024.737987499438	494.603367787568	360.693403015372	996.599617847709	419.995161862627	353.414081751371	909.116967806461	305.720872528491	298.920755671799	957.844346636510	193.562763609455	368.994758254380	822.751672419258	390.418030763048	583.626972855426	717.895627115556	323.561325658977	650.317626973128	723.117529681132	215.660739701206	594.861924070677	538.983404415172	91.712271121002	573.854414347226	718.295781721274	103.629766038855	608.400129471017	618.764162703610	62.692393185684	646.165720802383	821.099426019813	35.998479545877	634.157446803433	826.865638217753	38.845583412578	403.125547717888	904.583136673521	36.503709146139	326.117497890293	987.190281508243	96.703634244064	357.295688409775	1116.226867713442	43.282457488888	333.811256321879	768.935419814022	1090.420798442446	170.032917664176	772.208156343928	828.620602291557	173.916372353398	1115.317986531231	1143.866674640662	715.240880774204	1369.251513508645	1094.197686589424	689.357161880040	
92	37.911000000000	714.675981665352	1007.541941950220	480.256380880901	877.455998577768	1424.778833489231	272.738403598491	1000.640948120514	1356.013499080906	419.628114618486	944.813311343204	1439.435898163103	598.893132358525	883.464362467788	1491.028052287453	428.278277638686	949.126820195671	934.104119314741	580.237763317667	916.689525946539	955.578465956734	307.930663374825	947.014072313114	721.857850364803	562.996592807777	846.713694671365	628.603548824246	631.757030611053	910.529681610905	558.483685459106	556.362091405226	889.814926976164	462.454327854129	572.770035183560	985.741251482418	758.790690722746	347.162538536919	916.509902437010	631.311994499359	285.973296709642	1011.445697842818	566.684927790875	350.938122034602	1021.384811376182	493.666550889648	358.093194785574	992.804964454412	419.124758269019	351.209249046783	904.626851371327	305.096447330576	297.172789911257	952.435478112281	193.151998789331	368.217404986523	825.557988451109	390.959677565497	582.564595652799	718.801710385529	327.033105329272	648.840985220859	722.491030995820	218.353575928614	594.587615013942	535.804940735088	99.238333213451	573.694394595820	715.089659353275	104.785675345941	608.594498590612	614.257046192596	67.382816116890	646.058912387422	814.781106678441	35.585052832211	634.259638518792	820.527311518895	38.799873119978	403.082901883114	898.240409691412	36.413023252882	326.033420998402	980.893628121975	96.579212980686	357.177323396724	1109.955624449337	43.021813414418	333.792070538627	777.642473017578	1089.662384122209	161.936511084138	785.748911393034	828.029950611530	164.021728534786	1102.155118224666	1136.886264561845	712.974075802259	1352.357173057866	1069.476645218105	692.230450515532	
